<?xml version="1.0" standalone="no"?>
<svg viewBox="0 0 200 200" xmlns="http://www.w3.org/2000/svg">
  <path fill="#FF0066" d="M31.6,-51.5C42.5,-42.2,54,-36,61,-26.2C68.1,-16.4,70.7,-2.9,70.1,11C69.5,24.9,65.7,39.3,57.5,51.3C49.3,63.3,36.8,72.9,23.6,73.6C10.5,74.3,-3.3,66.1,-19.5,62.9C-35.7,59.7,-54.4,61.5,-63.8,53.7C-73.3,45.8,-73.4,28.2,-73.5,12C-73.7,-4.2,-73.8,-19,-69.1,-32.5C-64.4,-46.1,-54.9,-58.4,-42.6,-67C-30.3,-75.7,-15.1,-80.6,-2.4,-76.9C10.4,-73.2,20.7,-60.8,31.6,-51.5Z" transform="translate(100 100)" />
</svg>
