<svg width="800" height="800" viewBox="0 0 800 800" fill="none" xmlns="http://www.w3.org/2000/svg">
<path d="M400 740.945C425.69 741.436 452.006 743.125 476.679 735.954C501.334 728.789 519.85 707.714 544.031 699.084C570.207 689.741 600.363 694.587 625.544 682.823C650.524 671.153 675.47 654.645 689.704 631.031C704.375 606.693 703.286 575.993 706.929 547.809C710.231 522.261 706.889 496.368 710.408 470.849C713.735 446.721 727.451 424.355 727.312 400C727.173 375.64 713.982 353.298 709.602 329.335C705.11 304.755 706.19 279.532 700.835 255.126C695.135 229.149 690.135 202.292 676.694 179.344C663.241 156.375 641.614 139.548 622.368 121.16C602.521 102.198 586.194 75.9263 559.969 67.8218C532.431 59.3119 502.792 78.0976 474.101 75.3409C448.287 72.8605 425.893 50.9989 400 52.4514C373.746 53.9242 353.41 77.7062 327.772 83.5494C302.128 89.394 275.09 82.2873 249.183 86.8243C221.801 91.6193 192.259 94.9684 169.712 111.229C147.385 127.331 140.222 157.656 122.16 178.43C103.595 199.784 76.583 213.182 60.7079 236.606C44.7975 260.081 34.4924 287.512 29.3311 315.397C24.1819 343.217 24.7857 372.284 30.4652 400C36.0647 427.326 57.5161 449.589 62.4544 477.043C67.5908 505.598 50.1724 536.447 59.924 563.772C69.3775 590.262 92.4583 610.972 115.833 626.616C139.613 642.532 170.107 644.125 196.5 655.181C218.902 664.565 240.757 674.97 261.486 687.628C283.532 701.091 299.88 723.752 323.988 733.032C347.837 742.212 374.45 740.456 400 740.945Z" fill="#4597F7" stroke="#383838" stroke-width="38.0952"/>
</svg>
